
<svg version="1.2" xmlns="http://www.w3.org/2000/svg" viewBox="0 0 1078 968" width="1078" height="968">
	<title>Screenshot 2024-09-28 at 16</title>
	<style>
		.s0 { fill: #000000 } 
		.s1 { fill: #ffffff } 
	</style>
	<g id="Background">
		<path id="Path 1" class="s0" d="m430 392.8v122.7c14.3-2.6 24.6-4.1 32-5 7.4-0.9 23.6-1.9 36-2.2 13.3-0.3 28.6-0.1 37.5 0.6 8.3 0.6 21.1 2 28.5 3.1 7.4 1.1 14.7 2.2 16.3 2.5l2.7 0.5v-245h-153zm-85.8 70.5c-0.6 3.4-4 23.8-7.7 45.2-3.6 21.5-6.3 39.3-6 39.5 0.3 0.3 3.5-0.7 7.2-2.1 3.8-1.5 12.6-5.2 19.8-8.1 7.1-3 22-8.4 33-12 11-3.6 21.5-7.2 23.3-7.9l3.4-1.4c-9.9-8.5-12.9-11.2-13.2-11.6-0.3-0.3-13.3-11.2-29-24.2-15.7-13-28.8-23.7-29.1-23.7-0.4 0-1.1 2.9-1.7 6.3zm291.3 23.2c-19.5 16.3-35.4 29.7-35.3 30 0.2 0.2 5.2 2.1 11.3 4.3 6 2.2 19.1 6.9 29 10.5 9.9 3.6 24.5 9.1 32.5 12.1 8 3 14.6 5.4 14.8 5.3 0.2-0.1-3.1-20.7-7.3-45.9-4.2-25.2-8-45.8-8.5-45.8-0.6 0-17 13.3-36.5 29.5zm102.9 45.7c-19.2 10.4-36.9 20-39.4 21.2l-4.5 2.3c17 9.8 24.2 14 27 15.7 2.7 1.7 9 6 14 9.5 4.9 3.6 13.3 9.9 18.5 14.1 5.2 4.2 11.1 8.6 13 9.8l3.5 2.1c1.1-14.2 1.9-35.2 2.5-55.9 0.6-20.6 0.9-37.5 0.7-37.6-0.2 0-16.1 8.4-35.3 18.8zm-494.1 6.1c0.4 13.3 1 34 1.4 46 0.5 13.4 1.2 21.7 1.8 21.7 0.5 0 2.8-1.7 5-3.7 2.2-2.1 6.4-5.8 9.4-8.3 2.9-2.4 10.8-8.4 17.4-13.1 6.7-4.8 18.6-12.5 26.4-17 7.8-4.6 14.3-8.6 14.3-8.9 0-0.2-16.8-9.6-37.5-20.7-20.6-11.1-37.8-20.3-38.2-20.3-0.3 0-0.3 11 0 24.3zm242.2-12.6c-2.2 0.2-8.5 0.8-14 1.4-5.5 0.6-15.6 1.9-22.5 3-6.9 1.2-19.7 3.9-28.5 6.1-8.8 2.2-21.6 5.8-28.5 8-6.9 2.3-19 6.7-27 9.9-8 3.2-20.6 8.7-28 12.2-7.4 3.6-19.6 9.8-27 14-7.4 4.1-18.2 10.4-24 14-5.8 3.5-17.1 10.9-25.1 16.4-8 5.4-16 11-17.8 12.3l-3.2 2.5c24.5 24.1 36.1 34.5 41.6 38.7 5.5 4.2 14.7 10.6 20.5 14.4 5.8 3.7 16.8 10 24.5 14 7.7 4.1 19.4 9.6 26 12.5 6.6 2.8 17.2 6.9 23.5 9.1 6.3 2.2 16.9 5.5 23.5 7.3 6.6 1.9 18.3 4.7 26 6.4 7.7 1.7 20.3 4 28 5.1 7.7 1.1 19.8 2.5 27 3.1 7.1 0.6 23.6 1.1 36.5 1.1 12.9 0 28.7-0.5 35-1.1 6.3-0.6 16.2-1.8 22-2.6 5.8-0.9 15.2-2.5 21-3.6 5.8-1.1 16.1-3.6 23-5.4 6.9-1.9 16.3-4.7 21-6.3 4.7-1.6 13.4-4.9 19.5-7.4 6-2.5 14.6-6.3 19-8.5 4.4-2.2 12-6.5 17-9.4 4.9-2.9 12.8-8 17.5-11.3 4.7-3.3 11.2-8.2 14.5-10.9 3.3-2.8 10.2-9.1 15.3-14.1 5.2-5 12.6-12.9 16.6-17.6 3.9-4.6 8.5-10.2 10.1-12.2 3-3.8 3-3.8 1-5.6-1.1-1-5.6-4.3-10-7.4-4.4-3.2-15.7-10.8-25-17.1-9.4-6.3-21.3-13.8-26.5-16.7-5.2-2.9-12.2-6.9-15.5-8.9-3.3-2-9.2-5-13-6.6-3.9-1.6-7.3-3.3-7.8-3.9-0.4-0.6-0.7-0.7-0.7-0.3 0 0.4-1.7-0.1-3.8-1.2-2-1-9.3-4.1-16.2-6.8-6.9-2.8-19-7.1-27-9.7-8-2.6-19-5.8-24.5-7.2-5.5-1.4-16.3-3.6-24-4.9-7.7-1.3-21-3.1-29.5-3.9-9.2-0.9-23.9-1.5-36-1.4-11.3 0.1-22.3 0.3-24.5 0.5z"/>
		<path id="Path 2" class="s1" d="m584.7 559.7c-0.3 0.5 1.7 3.7 4.6 7.3 2.9 3.6 7.3 10.6 9.9 15.5 2.5 5 5.8 13 7.2 18 1.5 5 3.1 13.9 3.7 20 0.9 8.2 0.8 13.4 0 20.5-0.7 5.2-2.1 12.9-3.2 17-1.1 4.1-4.1 11.8-6.5 17-2.5 5.2-6.5 12.2-8.9 15.5-2.3 3.3-5.4 7.1-6.9 8.5-1.4 1.4-2.3 2.8-2.1 3.2 0.3 0.5 5.8-0.4 12.2-1.8 6.5-1.4 17.2-4.1 23.8-6 6.6-1.9 16.9-5.3 23-7.5 6-2.2 17.3-7.1 25-10.9 7.7-3.7 18-9.4 23-12.5 5-3.1 12.4-8.2 16.5-11.3 4.1-3.1 11.9-10 17.3-15.2 5.4-5.2 9.8-9.7 9.8-10 0-0.3-3.3-2.8-7.3-5.6-4-2.8-12.3-8.2-18.3-11.9-6.1-3.7-16.6-9.8-23.5-13.5-6.9-3.6-18.6-9.4-26-12.7-7.4-3.3-18.5-7.9-24.5-10.1-6.1-2.2-16.4-5.6-23-7.6-6.6-1.9-14.3-4-17-4.6-2.8-0.6-5.7-1.3-6.6-1.5-0.9-0.3-1.8-0.2-2.2 0.2zm-160.7 5.4c-1.9 0.5-10.3 3-18.5 5.6-8.3 2.5-20.4 6.8-27 9.4-6.6 2.6-17.4 7.2-24 10.2-6.6 3-17.4 8.4-24 12-6.6 3.5-17.2 9.5-23.5 13.4-6.3 3.8-13.9 8.6-16.8 10.6-2.8 2-5.2 4-5.2 4.4-0.1 0.5 5 4.9 11.2 9.9 6.2 5 14.7 11.3 18.8 14.1 4.1 2.7 11.1 7 15.5 9.5 4.4 2.5 11.7 6.4 16.2 8.7 4.6 2.2 14 6.4 21 9.2 7.1 2.8 18.2 6.8 24.8 8.9 6.6 2.1 14.9 4.6 18.5 5.5 3.6 0.9 10.2 2.5 14.7 3.6 4.6 1 8.3 1.6 8.3 1.1-0.1-0.4-2.4-3.6-5.3-7.2-2.8-3.6-7.2-10.6-9.7-15.5-2.6-5-5.6-12.2-6.7-16-1.2-3.9-2.7-9.9-3.3-13.5-0.7-3.6-1.2-11.5-1.2-17.5 0.1-6.1 0.6-14.2 1.2-18 0.6-3.9 2.5-11.1 4.1-16 1.7-5 4.8-12.4 7.1-16.5 2.2-4.1 5.2-9.1 6.7-11 1.5-1.9 3.1-4.1 3.4-4.8 0.5-0.7 0.1-1.2-1.1-1.1-0.9 0-3.3 0.5-5.2 1z"/>
	</g>
</svg>